<?xml version="1.0" encoding="UTF-8"?><svg xmlns="http://www.w3.org/2000/svg" xmlns:xlink="http://www.w3.org/1999/xlink" viewBox="0 0 1594 161.7"><defs><style>.cls-1{fill:#575757;}.cls-1,.cls-2,.cls-3,.cls-4,.cls-5,.cls-6,.cls-7,.cls-8,.cls-9,.cls-10,.cls-11,.cls-12,.cls-13,.cls-14,.cls-15,.cls-16,.cls-17,.cls-18,.cls-19,.cls-20,.cls-21,.cls-22,.cls-23{stroke-miterlimit:10;}.cls-1,.cls-11,.cls-14{stroke:#969696;}.cls-2,.cls-4,.cls-7,.cls-8,.cls-10,.cls-24,.cls-25,.cls-15{fill:none;}.cls-2,.cls-5{stroke:#020202;}.cls-3{fill:#3d3d3d;stroke:#2b2b2b;}.cls-4{stroke:#000;}.cls-5{fill:#151515;}.cls-6{fill:#3ebaeb;}.cls-6,.cls-9,.cls-20{stroke:#42a7de;}.cls-7{stroke:#010101;}.cls-8{stroke:#b4842c;}.cls-26{fill:#3b3f3f;}.cls-9{fill:#2ab0e5;}.cls-10{stroke:#6bbe45;}.cls-24{isolation:isolate;}.cls-11{fill:#b3b7b2;}.cls-27{fill:#49473c;}.cls-12{fill:#ed1c24;opacity:.28;stroke:#ed2024;stroke-width:.5px;}.cls-13{fill:#2a2b2a;stroke:#272826;}.cls-14{fill:#838484;}.cls-15{stroke:#6e716f;}.cls-16{fill:#c6c6c5;stroke:#8c8c8c;}.cls-17{fill:#eaeaea;stroke:#dfe5de;}.cls-18{stroke:#757576;}.cls-18,.cls-22{fill:#333;}.cls-19{fill:#d8d9d8;stroke:#c4c4c4;}.cls-20{fill:#319cd7;}.cls-21{fill:#ed2024;filter:url(#drop-shadow-1);mix-blend-mode:color-dodge;stroke:#ee1d43;stroke-width:2px;}.cls-22{stroke:#1b1b1b;}.cls-23{fill:#975151;stroke:#8b8e8b;}</style><filter id="drop-shadow-1" filterUnits="userSpaceOnUse"><feOffset dx="0" dy="0"/><feGaussianBlur result="blur" stdDeviation="5"/><feFlood flood-color="#b41f24" flood-opacity="1"/><feComposite in2="blur" operator="in"/><feComposite in="SourceGraphic"/></filter></defs><g class="cls-24"><g id="Layer_1"><polyline class="cls-19" points="465.5 150.1 1033.5 149.83 1044.5 160.83 1593.5 160.83 1593.5 1.83 .5 1.83 .5 160.83 457.5 160.83 465.5 149.83"/><rect class="cls-22" x="97.5" y="18.33" width="265" height="57.5"/><path class="cls-22" d="m1459.5,149.83h-253v-28s0-12,8-12h235c12,5,10,12,10,12v28Z"/><line class="cls-7" x1="465.5" y1="149.83" x2="1033.5" y2="149.83"/><line class="cls-7" x1="465.5" y1="149.83" x2="465.5" y2="75.83"/><line class="cls-10" x1="1033.5" y1="149.83" x2="1056.5" y2="149.83"/><line class="cls-7" x1="1056.5" y1="92.83" x2="1056.5" y2="149.83"/><line class="cls-7" x1="1000.5" y1="149.83" x2="1000.5" y2="92.83"/><line class="cls-7" x1="885.5" y1="92.83" x2="885.5" y2="58.83"/><line class="cls-7" x1="1000.5" y1="92.83" x2="1000.5" y2="58.83"/><line class="cls-7" x1="773.5" y1="149.83" x2="773.5" y2="119.37"/><line class="cls-7" x1="640.5" y1="92.83" x2="640.5" y2="58.83"/><line class="cls-7" x1="866.28" y1="92.83" x2="885.5" y2="92.83"/><path class="cls-17" d="m1110.53,143.57v-30.97s-1.55-2.77-8.26-2.77h-27.87s-9.29-1.35-9.29,2.77v33.03s8.23,13.19,17.01,9.69l28.41-11.76Z"/><path class="cls-9" d="m1105.97,134.69l-9.82-9.7s-23.04-6.97-23.04,18.32l10.28,12.61,22.58-21.23Z"/><circle class="cls-6" cx="1095.05" cy="145.69" r="15.51"/><rect class="cls-11" x="1046.6" y="3.92" width="77.94" height="16"/><line class="cls-15" x1="1060.02" y1="19.92" x2="1060.02" y2="3.92"/><line class="cls-15" x1="1111.02" y1="19.92" x2="1111.02" y2="3.92"/><line class="cls-15" x1="1075.5" y1="19.92" x2="1075.5" y2="3.92"/><line class="cls-15" x1="1096.15" y1="19.92" x2="1096.15" y2="3.92"/><line class="cls-15" x1="1089.44" y1="19.92" x2="1089.44" y2="3.92"/><line class="cls-15" x1="1086.56" y1="19.79" x2="1086.56" y2="3.79"/><line class="cls-15" x1="1082.47" y1="20.08" x2="1082.47" y2="4.08"/><line class="cls-15" x1="1078.98" y1="19.31" x2="1078.98" y2="3.31"/><rect class="cls-11" x="383.56" y="4.31" width="77.94" height="16"/><line class="cls-15" x1="396.98" y1="20.31" x2="396.98" y2="4.31"/><line class="cls-15" x1="447.98" y1="20.31" x2="447.98" y2="4.31"/><line class="cls-15" x1="412.47" y1="20.31" x2="412.47" y2="4.31"/><line class="cls-15" x1="433.11" y1="20.31" x2="433.11" y2="4.31"/><line class="cls-15" x1="426.4" y1="20.31" x2="426.4" y2="4.31"/><line class="cls-15" x1="423.53" y1="20.18" x2="423.53" y2="4.18"/><line class="cls-15" x1="419.44" y1="20.46" x2="419.44" y2="4.46"/><line class="cls-15" x1="415.95" y1="19.69" x2="415.95" y2="3.69"/><path class="cls-14" d="m88.5,149.83h321v-46s0-11-15-11H96.5c-9,0-8,11-8,11v46Z"/><rect class="cls-1" x="120.6" y="99.7" width="68.13" height="46"/><polygon class="cls-13" points="161.63 106.71 146.37 106.71 146.37 109.81 142.37 109.81 142.37 116.47 132.21 116.47 132.21 143.34 175.56 143.34 175.56 116.47 167.27 116.47 167.27 109.81 161.63 109.81 161.63 106.71"/><line class="cls-8" x1="144.37" y1="139.96" x2="152.34" y2="127.96"/><line class="cls-8" x1="148.55" y1="140.31" x2="156.52" y2="128.31"/><line class="cls-8" x1="152.55" y1="140.31" x2="160.52" y2="128.31"/><line class="cls-8" x1="156.55" y1="140.31" x2="164.52" y2="128.31"/><line class="cls-8" x1="160.55" y1="140.31" x2="168.52" y2="128.31"/><line class="cls-8" x1="164.55" y1="140.31" x2="172.52" y2="128.31"/><line class="cls-8" x1="168.55" y1="140.31" x2="175.52" y2="129.31"/><rect class="cls-22" x="699.5" y="1.83" width="57.5" height="66.5"/><polyline class="cls-22" points="830.5 2.89 830.5 69.06 773.5 69.06 773.5 1.57 830.5 1.57"/><rect class="cls-22" x="639.81" y="1.9" width="59.69" height="90.93"/><rect class="cls-22" x="830.4" y="1.57" width="55.2" height="91.26"/><rect class="cls-5" x="757" y="1.9" width="16.5" height="148.06"/><rect class="cls-22" x="773.94" y="109.7" width="56.46" height="40.26"/><rect class="cls-22" x="699.5" y="110.15" width="57.25" height="39.81"/><rect class="cls-22" x="639.81" y="92.83" width="59.69" height="57.28"/><rect class="cls-22" x="583.5" y="92.83" width="56.31" height="57"/><rect class="cls-22" x="583.5" y="35.15" width="56.31" height="57.68"/><rect class="cls-5" x="465.5" y="53.25" width="117.8" height="96.86"/><rect class="cls-22" x="830.4" y="92.83" width="55.14" height="57"/><rect class="cls-22" x="885.61" y="93.17" width="56.89" height="57"/><rect class="cls-22" x="885.61" y="36.15" width="56.89" height="56.68"/><rect class="cls-22" x="942.61" y="92.83" width="57.89" height="57"/><rect class="cls-22" x="942.61" y="35.99" width="57.89" height="57"/><rect class="cls-22" x="1000.55" y="93.17" width="55.95" height="57"/><rect class="cls-22" x="1000.55" y="35.99" width="55.95" height="57"/><rect class="cls-22" x="1132.5" y="29.83" width="386" height="56"/><circle class="cls-20" cx="1095.05" cy="145.69" r="12.93"/><path class="cls-17" d="m419.44,144.94v13.08h30.45v-15.48c3.87-.52,3.1-7.94,3.1-7.94v-34.9h-39.74v26.84l6.19,18.4Z"/><polyline class="cls-17" points="1065.11 112.6 1067.5 102.83 1115.5 103.83 1110.53 112.6"/><polygon class="cls-17" points="448.5 92.83 452.98 99.7 413.24 99.7 410.5 92.83 448.5 92.83"/><path class="cls-9" d="m415.48,124.58l11.69-10.47s18.82-4.57,21.57,17.07l-10.71,14.48-22.55-21.08Z"/><circle class="cls-6" cx="427.17" cy="134.6" r="15.51"/><circle class="cls-20" cx="427.17" cy="134.6" r="12.93"/><rect class="cls-18" x="216.6" y="113.71" width="45.68" height="19.05"/><path class="cls-18" d="m362.5,121.33h27.52v13.27h-23.23s-4.29-.74-4.29-4.66v-8.61Z"/><path class="cls-17" d="m1056.5,92.83h11v10l48,1c1-10,1-11,1-11h7c7,0,9-7,9-7V29.83c0-9-9-8-9-8h-78.5s-.5-21-6-21h-183.5c-17,0-15,21-15,21v30s2,16.5-10,16.5h-150c-10,0-7-16.5-7-16.5V16.83c0-20-17-16-17-16h-181s-15-4-10,21h-75s-9-1.5-9,13.25v33.25c-5,15.5,9,13,9,13h14c8,0,6,11.5,6,11.5h38s-1.19-14.29,4.48-11.19h8.52c4.39,0,4-5.81,4-5.81v-7.5c-1-12.5,10-9.5,10-9.5h165s6,3,7,28,1,32,22,32h171c17,0,22,7,25-29.44s12-30.56,12-30.56h161.5c7.5,0,5.5,6,5.5,6v17s0,14.44,7,11"/><path class="cls-3" d="m508.21,40.63v-15.22c0-3.86-3.61-4.59-3.61-4.59h-19.1c-5.16,0-4.65,4.59-4.65,4.59v15.22c0,5.16,4.65,5.16,4.65,5.16h19.1s3.61-.52,3.61-5.16Z"/><path class="cls-3" d="m544.68,40.63v-15.22c0-3.86-3.61-4.59-3.61-4.59h-19.1c-5.16,0-4.65,4.59-4.65,4.59v15.22c0,5.16,4.65,5.16,4.65,5.16h19.1s3.61-.52,3.61-5.16Z"/><path class="cls-3" d="m583.3,40.63v-15.22c0-3.86-3.61-4.59-3.61-4.59h-19.1c-5.16,0-4.65,4.59-4.65,4.59v15.22c0,5.16,4.65,5.16,4.65,5.16h19.1s3.61-.52,3.61-5.16Z"/><path class="cls-3" d="m622.79,40.63v-15.22c0-3.86-3.61-4.59-3.61-4.59h-19.1c-5.16,0-4.65,4.59-4.65,4.59v15.22c0,5.16,4.65,5.16,4.65,5.16h19.1s3.61-.52,3.61-5.16Z"/><path class="cls-3" d="m661.25,40.63v-15.22c0-3.86-3.61-4.59-3.61-4.59h-19.1c-5.16,0-4.65,4.59-4.65,4.59v15.22c0,5.16,4.65,5.16,4.65,5.16h19.1s3.61-.52,3.61-5.16Z"/><path class="cls-3" d="m879.96,40.63v-15.22c0-3.86-3.61-4.59-3.61-4.59h-19.1c-5.16,0-4.65,4.59-4.65,4.59v15.22c0,5.16,4.65,5.16,4.65,5.16h19.1s3.61-.52,3.61-5.16Z"/><path class="cls-3" d="m918.02,40.63v-15.22c0-3.86-3.61-4.59-3.61-4.59h-19.1c-5.16,0-4.65,4.59-4.65,4.59v15.22c0,5.16,4.65,5.16,4.65,5.16h19.1s3.61-.52,3.61-5.16Z"/><path class="cls-3" d="m956.18,40.63v-15.22c0-3.86-3.61-4.59-3.61-4.59h-19.1c-5.16,0-4.65,4.59-4.65,4.59v15.22c0,5.16,4.65,5.16,4.65,5.16h19.1s3.61-.52,3.61-5.16Z"/><path class="cls-3" d="m991.82,41.74v-15.22c0-3.86-3.61-4.59-3.61-4.59h-19.1c-5.16,0-4.65,4.59-4.65,4.59v15.22c0,5.16,4.65,5.16,4.65,5.16h19.1s3.61-.52,3.61-5.16Z"/><path class="cls-3" d="m1027.87,40.63v-15.22c0-3.86-3.61-4.59-3.61-4.59h-19.1c-5.16,0-4.65,4.59-4.65,4.59v15.22c0,5.16,4.65,5.16,4.65,5.16h19.1s3.61-.52,3.61-5.16Z"/><path class="cls-3" d="m751.49,103.58v-15.22c0-3.86-3.61-4.59-3.61-4.59h-19.1c-5.16,0-4.65,4.59-4.65,4.59v15.22c0,5.16,4.65,5.16,4.65,5.16h19.1s3.61-.52,3.61-5.16Z"/><path class="cls-3" d="m789.5,103.58v-15.22c0-3.86-3.61-4.59-3.61-4.59h-19.1c-5.16,0-4.65,4.59-4.65,4.59v15.22c0,5.16,4.65,5.16,4.65,5.16h19.1s3.61-.52,3.61-5.16Z"/><path class="cls-3" d="m671.82,108.46h34.58c8.26,0,7.23-3.89,7.23-3.89v-17c0-4.29-7.23-3.45-7.23-3.45h-34.58s-6.19-.84-6.19,3.45v15.92s1.03,4.97,6.19,4.97Z"/><path class="cls-3" d="m806.48,107.9h34.58c8.26,0,7.23-3.89,7.23-3.89v-17c0-4.29-7.23-3.45-7.23-3.45h-34.58s-6.19-.84-6.19,3.45v15.92s1.03,4.97,6.19,4.97Z"/><line class="cls-4" x1="665.63" y1="92.83" x2="713.63" y2="92.83"/><circle class="cls-21" cx="295.06" cy="115.46" r="9.02"/><circle class="cls-16" cx="318.4" cy="115.46" r="9.02"/><circle class="cls-23" cx="341.13" cy="115.46" r="9.02"/><rect class="cls-27" x="219.31" y="117.8" width="40.26" height="2.58"/><polygon class="cls-26" points="222.79 114.49 219.31 117.8 259.56 117.8 261.3 114.49 222.79 114.49"/><polygon class="cls-26" points="261.3 114.49 261.3 117.4 259.56 120.38 259.56 117.8 261.3 114.49"/><line class="cls-4" x1="724.12" y1="92.83" x2="751.49" y2="92.83"/><line class="cls-4" x1="773.63" y1="92.83" x2="789.5" y2="92.83"/><line class="cls-4" x1="800.29" y1="92.83" x2="848.29" y2="92.83"/><line class="cls-4" x1="699.5" y1="84.13" x2="699.5" y2="108.75"/><line class="cls-4" x1="830.5" y1="83.5" x2="830.4" y2="108.46"/><line class="cls-25" x1="773.5" y1="83.5" x2="773.63" y2="108.75"/><line class="cls-2" x1="639.81" y1="45.79" x2="639.81" y2="20.83"/><line class="cls-2" x1="942.5" y1="45.79" x2="942.5" y2="20.83"/><path class="cls-5" d="m773.63,108.75l.32-24.97h-7.15s-4.65-.45-4.65,4.59v15.22s-.25,5.16,4.65,5.16h6.83Z"/><circle class="cls-12" cx="295.06" cy="115.46" r="9.02"/></g></g></svg>